# xmcd
#
# Track frame offsets: 
#        180
#        15280
#        33137
#        52670
#        75480
#        115450
#        140230
#        168102
#        192052
#        221340
#        244217
#        247940
#        270767
#        298342
#        334640
#
# Disc length: 4699 seconds
#
# Revision: 0
# Processed by: cddbd v1.4PL0 Copyright (c) Steve Scherf et al.
# Submitted via: ExactAudioCopy v0.95a3
#
DISCID=bf12590f
DTITLE=Buddy Guy - Peak To Peak - The Best Of Buddy Guy Live
DYEAR=1900
DGENRE=Blues
TTITLE0=Everyday I Have The Blues
TTITLE1=Don't Start Me To Talking
TTITLE2=One Room Country Shack
TTITLE3=Got My Mojo Working
TTITLE4=Garbage Man Blues
TTITLE5=Mellow Down
TTITLE6=I Just Wanna Make Love To You
TTITLE7=Stormy Monday
TTITLE8=While You Was Slippin' Out
TTITLE9=Sweet Home Chicago
TTITLE10=Voodoo Chile Interlude
TTITLE11=Hoochie Coochie Man
TTITLE12=Damned Right I Got The Blues
TTITLE13=Knock On Wood
TTITLE14=Johnny B. Goode
EXTD=
EXTT0=
EXTT1=
EXTT2=
EXTT3=
EXTT4=
EXTT5=
EXTT6=
EXTT7=
EXTT8=
EXTT9=
EXTT10=
EXTT11=
EXTT12=
EXTT13=
EXTT14=
PLAYORDER=
